<?xml version="1.0" encoding="utf-8"?>
<!-- Generator: Adobe Illustrator 18.1.0, SVG Export Plug-In . SVG Version: 6.00 Build 0)  -->
<!DOCTYPE svg PUBLIC "-//W3C//DTD SVG 1.1//EN" "http://www.w3.org/Graphics/SVG/1.1/DTD/svg11.dtd">
<svg version="1.1" id="Ebene_1" xmlns="http://www.w3.org/2000/svg" xmlns:xlink="http://www.w3.org/1999/xlink" x="0px" y="0px"
	 width="500px" height="200px" viewBox="-281 495.5 500 200" enable-background="new -281 495.5 500 200" xml:space="preserve">
<g>
	<path fill="#E2E2E1" d="M175.8,655.9c-6.1-22.8-26.9-39.6-51.6-39.6c-1.5,0-2.9,0.1-4.4,0.2c-1.2-37-31.6-66.6-68.9-66.6
		c-31.4,0-57.8,20.9-66.2,49.5c-12.5-9.2-28-14.6-44.6-14.6c-40,0-72.8,31.2-75.3,70.6c-22.9,1.8-41.7,17.9-47.5,39.4h83.8
		c2.7-10,11-17.7,21.4-19.3c3-11.3,13.3-19.6,25.6-19.6c0.7,0,1.4,0,2.2,0.1C-49.1,637.7-34,623-15.5,623
		c15.6,0,28.7,10.4,32.8,24.6c6.2-4.6,13.9-7.3,22.2-7.3c19.9,0,36.1,15.5,37.4,35c11.4,0.9,20.7,8.9,23.6,19.6H219
		C213.6,674.8,196.7,659.2,175.8,655.9z"/>
	<g>
		<path fill="#FFFFFF" d="M157.3,637.9l7.6-2.7l-4.8-13l-43.2,15.6c-5.9-3.4-15.8-9.2-17.3-10.2c-2.2-1.4-4.4-1.4-4.4-1.4l-5.6,2
			l10,15.8l-9.3,3.4l0.8,2.4h32.5l18-6.4c-1,1.2-1.5,2.5-1.1,3.5c0.9,2.6,6.6,2.8,12.8,0.6c6.1-2.2,6.3-4.6,5.4-7.2
			C158.5,639.3,158,638.5,157.3,637.9z"/>
		<path fill="#E62F3E" d="M188.7,621.1c-1.1-3-14.7-3.8-23.8-0.7l-5.7,2.1l4.8,13l11.4-4.1C182.6,628.6,189.2,622.6,188.7,621.1z"/>
		<polygon fill="#003D4E" points="154.5,624.2 159.3,637.2 161.7,636.3 157,623.3 		"/>
	</g>
	<g>
		<path fill="#FFFFFF" d="M73.1,598.6l5.7-2l-3.6-9.8l-32.4,11.7c-4.4-2.6-11.8-7-13-7.7c-1.6-1.1-3.3-1-3.3-1l-4.2,1.5l7.5,11.9
			l-7,2.5l0.6,1.8h24.4l13.6-4.8c-0.8,0.9-1.1,1.8-0.8,2.6c0.7,1.9,5,2.1,9.6,0.5c4.6-1.7,4.7-3.5,4-5.4
			C74,599.8,73.6,599.1,73.1,598.6z"/>
		<path fill="#E62F3E" d="M96.6,586.1c-0.8-2.2-11-2.8-17.8-0.5l-4.3,1.6l3.6,9.8l8.5-3.1C92.1,591.8,97,587.2,96.6,586.1z"/>
		<polygon fill="#003D4E" points="71,588.4 74.6,598.1 76.4,597.5 72.8,587.8 		"/>
	</g>
	<polygon fill="#C3C2C3" points="146.9,695.1 146.9,675.4 135.3,669.5 135.3,679.5 128.9,679.5 128.9,667.9 105.2,667.9 
		105.2,685.6 96.2,685.6 96.2,659.8 86.9,653.2 76.8,659.8 76.8,686.5 68.9,686.5 68.9,665 56.9,667.4 56.9,682.5 48.3,682.5 
		42.8,688.8 42.8,690.2 11.7,690.2 11.7,695.1 	"/>
	<polygon fill="#C3C2C3" points="-175.3,695.1 -175.3,695.1 -163.6,695.1 -163.6,695.1 -152.9,695.1 -152.9,695.1 -53.5,695.1 
		-53.5,689.2 -85.3,689.2 -85.3,676.1 -103,676.1 -103,682.1 -128.4,682.1 -128.4,689.2 -139.5,689.2 -139.5,674.5 -150.4,668.8 
		-150.4,663.6 -158.4,658 -167,663.6 -167,683.5 -175.3,683.5 -175.3,676.1 -193,676.1 -193,683.8 -203,686.2 -203,695.1 	"/>
	<g>
		<path fill="#003D4E" d="M-23.6,667.6c-11.4,0-22.1,2.1-31.2,5.7v22.1h70.5l4.5-15.4C9.4,672.5-6.2,667.6-23.6,667.6z"/>
		<polygon fill="#003D4E" points="-46.8,614.1 -65.8,614.1 -67.1,588.8 -68.6,588.8 -70,614.1 -89,614.1 -86,631.5 -49.7,631.5 		
			"/>
		<rect x="-77.3" y="635.1" fill="#003D4E" width="18.9" height="60.4"/>
	</g>
</g>
</svg>
